<svg xmlns="http://www.w3.org/2000/svg" xmlns:xlink="http://www.w3.org/1999/xlink" width="1920" zoomAndPan="magnify" viewBox="0 0 1440 809.999993" height="1080" preserveAspectRatio="xMidYMid meet" version="1.0"><defs><g/><clipPath id="442427acfc"><path d="M 272.492188 304 L 510.652344 304 L 510.652344 524.03125 L 272.492188 524.03125 Z M 272.492188 304 " clip-rule="nonzero"/></clipPath></defs><g clip-path="url(#442427acfc)"><path fill="#efefef" d="M 290.613281 369.070312 L 492.535156 369.070312 L 492.535156 494.621094 C 492.535156 500.902344 487.4375 505.996094 481.15625 505.996094 L 301.988281 505.996094 C 295.707031 505.996094 290.613281 500.902344 290.613281 494.621094 Z M 295.265625 304.542969 C 282.683594 304.542969 272.492188 314.730469 272.492188 327.3125 L 272.492188 501.261719 C 272.492188 513.839844 282.683594 524.03125 295.265625 524.03125 L 487.882812 524.03125 C 500.460938 524.03125 510.652344 513.839844 510.652344 501.261719 L 510.652344 327.3125 C 510.652344 314.730469 500.460938 304.542969 487.882812 304.542969 L 465.933594 304.542969 L 465.933594 322.914062 C 465.851562 333.59375 457.117188 342.199219 446.441406 342.09375 C 435.867188 342.007812 427.328125 333.464844 427.242188 322.914062 L 427.242188 304.542969 L 355.902344 304.542969 L 355.902344 322.914062 C 355.902344 333.59375 347.234375 342.261719 336.558594 342.261719 C 325.859375 342.261719 317.210938 333.59375 317.191406 322.914062 L 317.191406 304.542969 L 295.265625 304.542969 " fill-opacity="1" fill-rule="nonzero"/></g><path fill="#efefef" d="M 455.488281 322.660156 L 455.488281 295.070312 C 455.488281 290.140625 451.492188 286.167969 446.566406 286.167969 C 441.660156 286.1875 437.707031 290.164062 437.6875 295.070312 L 437.6875 322.660156 C 437.707031 327.585938 441.703125 331.5625 446.609375 331.542969 C 451.515625 331.519531 455.488281 327.566406 455.488281 322.660156 " fill-opacity="1" fill-rule="nonzero"/><path fill="#efefef" d="M 345.460938 295.070312 C 345.4375 290.140625 341.441406 286.167969 336.535156 286.1875 C 331.632812 286.1875 327.65625 290.164062 327.65625 295.070312 L 327.65625 322.660156 C 327.65625 327.585938 331.652344 331.5625 336.578125 331.542969 C 341.484375 331.519531 345.4375 327.566406 345.460938 322.660156 L 345.460938 295.070312 " fill-opacity="1" fill-rule="nonzero"/><g fill="#efefef" fill-opacity="1"><g transform="translate(327.022655, 475.045663)"><g><path d="M 4.28125 -15.046875 C 6.769531 -17.015625 7.90625 -17.925781 7.6875 -17.78125 C 14.851562 -23.707031 20.503906 -28.570312 24.640625 -32.375 C 28.773438 -36.1875 32.269531 -40.175781 35.125 -44.34375 C 37.976562 -48.519531 39.40625 -52.582031 39.40625 -56.53125 C 39.40625 -59.53125 38.707031 -61.875 37.3125 -63.5625 C 35.925781 -65.25 33.84375 -66.09375 31.0625 -66.09375 C 28.28125 -66.09375 26.101562 -65.046875 24.53125 -62.953125 C 22.957031 -60.867188 22.171875 -57.925781 22.171875 -54.125 L 4.0625 -54.125 C 4.207031 -60.34375 5.539062 -65.535156 8.0625 -69.703125 C 10.59375 -73.878906 13.925781 -76.953125 18.0625 -78.921875 C 22.195312 -80.898438 26.789062 -81.890625 31.84375 -81.890625 C 40.550781 -81.890625 47.117188 -79.65625 51.546875 -75.1875 C 55.972656 -70.726562 58.1875 -64.914062 58.1875 -57.75 C 58.1875 -49.914062 55.515625 -42.648438 50.171875 -35.953125 C 44.828125 -29.253906 38.019531 -22.722656 29.75 -16.359375 L 59.390625 -16.359375 L 59.390625 -1.09375 L 4.28125 -1.09375 Z M 4.28125 -15.046875 "/></g></g></g><g fill="#efefef" fill-opacity="1"><g transform="translate(389.70508, 475.045663)"><g><path d="M 5.59375 -57.53125 C 5.882812 -65.351562 8.445312 -71.382812 13.28125 -75.625 C 18.113281 -79.875 24.664062 -82 32.9375 -82 C 38.425781 -82 43.128906 -81.046875 47.046875 -79.140625 C 50.960938 -77.242188 53.925781 -74.648438 55.9375 -71.359375 C 57.945312 -68.066406 58.953125 -64.367188 58.953125 -60.265625 C 58.953125 -55.441406 57.742188 -51.507812 55.328125 -48.46875 C 52.910156 -45.425781 50.09375 -43.359375 46.875 -42.265625 L 46.875 -41.828125 C 51.050781 -40.429688 54.34375 -38.125 56.75 -34.90625 C 59.164062 -31.6875 60.375 -27.550781 60.375 -22.5 C 60.375 -17.96875 59.332031 -13.960938 57.25 -10.484375 C 55.164062 -7.003906 52.128906 -4.273438 48.140625 -2.296875 C 44.148438 -0.328125 39.410156 0.65625 33.921875 0.65625 C 25.140625 0.65625 18.128906 -1.5 12.890625 -5.8125 C 7.660156 -10.132812 4.898438 -16.648438 4.609375 -25.359375 L 22.828125 -25.359375 C 22.898438 -22.140625 23.816406 -19.597656 25.578125 -17.734375 C 27.335938 -15.867188 29.898438 -14.9375 33.265625 -14.9375 C 36.117188 -14.9375 38.332031 -15.757812 39.90625 -17.40625 C 41.476562 -19.050781 42.265625 -21.226562 42.265625 -23.9375 C 42.265625 -27.445312 41.144531 -29.988281 38.90625 -31.5625 C 36.675781 -33.132812 33.113281 -33.921875 28.21875 -33.921875 L 24.703125 -33.921875 L 24.703125 -49.1875 L 28.21875 -49.1875 C 31.945312 -49.1875 34.960938 -49.828125 37.265625 -51.109375 C 39.578125 -52.390625 40.734375 -54.675781 40.734375 -57.96875 C 40.734375 -60.601562 40 -62.648438 38.53125 -64.109375 C 37.070312 -65.578125 35.0625 -66.3125 32.5 -66.3125 C 29.71875 -66.3125 27.648438 -65.46875 26.296875 -63.78125 C 24.941406 -62.101562 24.15625 -60.019531 23.9375 -57.53125 Z M 5.59375 -57.53125 "/></g></g></g><g fill="#efefef" fill-opacity="1"><g transform="translate(547.907917, 443.002442)"><g><path d="M 62.25 -77.0625 L 62.25 -62.03125 L 41.828125 -62.03125 L 41.828125 0 L 23.046875 0 L 23.046875 -62.03125 L 2.640625 -62.03125 L 2.640625 -77.0625 Z M 62.25 -77.0625 "/></g></g></g><g fill="#efefef" fill-opacity="1"><g transform="translate(612.785882, 443.002442)"><g><path d="M 25.578125 -77.0625 L 25.578125 0 L 6.8125 0 L 6.8125 -77.0625 Z M 25.578125 -77.0625 "/></g></g></g><g fill="#efefef" fill-opacity="1"><g transform="translate(645.169975, 443.002442)"><g><path d="M 94.078125 -77.0625 L 94.078125 0 L 75.3125 0 L 75.3125 -46.21875 L 58.078125 0 L 42.921875 0 L 25.578125 -46.328125 L 25.578125 0 L 6.8125 0 L 6.8125 -77.0625 L 28.984375 -77.0625 L 50.609375 -23.71875 L 72.015625 -77.0625 Z M 94.078125 -77.0625 "/></g></g></g><g fill="#efefef" fill-opacity="1"><g transform="translate(745.94487, 443.002442)"><g><path d="M 25.578125 -62.03125 L 25.578125 -46.4375 L 50.71875 -46.4375 L 50.71875 -31.953125 L 25.578125 -31.953125 L 25.578125 -15.046875 L 54.015625 -15.046875 L 54.015625 0 L 6.8125 0 L 6.8125 -77.0625 L 54.015625 -77.0625 L 54.015625 -62.03125 Z M 25.578125 -62.03125 "/></g></g></g><g fill="#efefef" fill-opacity="1"><g transform="translate(805.333999, 443.002442)"><g><path d="M 53.46875 -39.515625 C 57.925781 -38.566406 61.507812 -36.351562 64.21875 -32.875 C 66.925781 -29.40625 68.28125 -25.4375 68.28125 -20.96875 C 68.28125 -14.53125 66.03125 -9.425781 61.53125 -5.65625 C 57.03125 -1.882812 50.753906 0 42.703125 0 L 6.8125 0 L 6.8125 -77.0625 L 41.5 -77.0625 C 49.332031 -77.0625 55.460938 -75.269531 59.890625 -71.6875 C 64.316406 -68.101562 66.53125 -63.238281 66.53125 -57.09375 C 66.53125 -52.550781 65.335938 -48.78125 62.953125 -45.78125 C 60.578125 -42.78125 57.414062 -40.691406 53.46875 -39.515625 Z M 25.578125 -45.890625 L 37.875 -45.890625 C 40.945312 -45.890625 43.304688 -46.566406 44.953125 -47.921875 C 46.597656 -49.273438 47.421875 -51.269531 47.421875 -53.90625 C 47.421875 -56.539062 46.597656 -58.550781 44.953125 -59.9375 C 43.304688 -61.332031 40.945312 -62.03125 37.875 -62.03125 L 25.578125 -62.03125 Z M 39.40625 -15.15625 C 42.550781 -15.15625 44.984375 -15.867188 46.703125 -17.296875 C 48.429688 -18.722656 49.296875 -20.789062 49.296875 -23.5 C 49.296875 -26.207031 48.394531 -28.328125 46.59375 -29.859375 C 44.800781 -31.398438 42.332031 -32.171875 39.1875 -32.171875 L 25.578125 -32.171875 L 25.578125 -15.15625 Z M 39.40625 -15.15625 "/></g></g></g><g fill="#efefef" fill-opacity="1"><g transform="translate(877.67676, 443.002442)"><g><path d="M 25.578125 -14.484375 L 50.171875 -14.484375 L 50.171875 0 L 6.8125 0 L 6.8125 -77.0625 L 25.578125 -77.0625 Z M 25.578125 -14.484375 "/></g></g></g><g fill="#efefef" fill-opacity="1"><g transform="translate(930.040187, 443.002442)"><g><path d="M 43.25 0.765625 C 36.007812 0.765625 29.367188 -0.914062 23.328125 -4.28125 C 17.285156 -7.644531 12.488281 -12.347656 8.9375 -18.390625 C 5.394531 -24.429688 3.625 -31.21875 3.625 -38.75 C 3.625 -46.289062 5.394531 -53.0625 8.9375 -59.0625 C 12.488281 -65.0625 17.285156 -69.742188 23.328125 -73.109375 C 29.367188 -76.484375 36.007812 -78.171875 43.25 -78.171875 C 50.5 -78.171875 57.140625 -76.484375 63.171875 -73.109375 C 69.210938 -69.742188 73.972656 -65.0625 77.453125 -59.0625 C 80.929688 -53.0625 82.671875 -46.289062 82.671875 -38.75 C 82.671875 -31.21875 80.910156 -24.429688 77.390625 -18.390625 C 73.878906 -12.347656 69.125 -7.644531 63.125 -4.28125 C 57.125 -0.914062 50.5 0.765625 43.25 0.765625 Z M 43.25 -16.359375 C 49.394531 -16.359375 54.316406 -18.40625 58.015625 -22.5 C 61.710938 -26.601562 63.5625 -32.019531 63.5625 -38.75 C 63.5625 -45.5625 61.710938 -50.992188 58.015625 -55.046875 C 54.316406 -59.109375 49.394531 -61.140625 43.25 -61.140625 C 37.03125 -61.140625 32.070312 -59.128906 28.375 -55.109375 C 24.675781 -51.085938 22.828125 -45.632812 22.828125 -38.75 C 22.828125 -31.945312 24.675781 -26.515625 28.375 -22.453125 C 32.070312 -18.390625 37.03125 -16.359375 43.25 -16.359375 Z M 43.25 -16.359375 "/></g></g></g><g fill="#efefef" fill-opacity="1"><g transform="translate(1016.324585, 443.002442)"><g><path d="M 3.625 -38.640625 C 3.625 -46.253906 5.269531 -53.039062 8.5625 -59 C 11.851562 -64.96875 16.441406 -69.613281 22.328125 -72.9375 C 28.222656 -76.269531 34.90625 -77.9375 42.375 -77.9375 C 51.519531 -77.9375 59.347656 -75.519531 65.859375 -70.6875 C 72.378906 -65.863281 76.738281 -59.28125 78.9375 -50.9375 L 58.296875 -50.9375 C 56.753906 -54.15625 54.570312 -56.601562 51.75 -58.28125 C 48.9375 -59.96875 45.738281 -60.8125 42.15625 -60.8125 C 36.375 -60.8125 31.6875 -58.800781 28.09375 -54.78125 C 24.507812 -50.757812 22.71875 -45.378906 22.71875 -38.640625 C 22.71875 -31.910156 24.507812 -26.53125 28.09375 -22.5 C 31.6875 -18.476562 36.375 -16.46875 42.15625 -16.46875 C 45.738281 -16.46875 48.9375 -17.304688 51.75 -18.984375 C 54.570312 -20.671875 56.753906 -23.125 58.296875 -26.34375 L 78.9375 -26.34375 C 76.738281 -18 72.378906 -11.429688 65.859375 -6.640625 C 59.347656 -1.847656 51.519531 0.546875 42.375 0.546875 C 34.90625 0.546875 28.222656 -1.113281 22.328125 -4.4375 C 16.441406 -7.769531 11.851562 -12.398438 8.5625 -18.328125 C 5.269531 -24.253906 3.625 -31.023438 3.625 -38.640625 Z M 3.625 -38.640625 "/></g></g></g><g fill="#efefef" fill-opacity="1"><g transform="translate(1099.97436, 443.002442)"><g><path d="M 34.6875 0.765625 C 29.050781 0.765625 24 -0.144531 19.53125 -1.96875 C 15.070312 -3.800781 11.503906 -6.507812 8.828125 -10.09375 C 6.160156 -13.6875 4.753906 -18.003906 4.609375 -23.046875 L 24.59375 -23.046875 C 24.882812 -20.191406 25.867188 -18.015625 27.546875 -16.515625 C 29.234375 -15.015625 31.429688 -14.265625 34.140625 -14.265625 C 36.921875 -14.265625 39.113281 -14.90625 40.71875 -16.1875 C 42.332031 -17.46875 43.140625 -19.242188 43.140625 -21.515625 C 43.140625 -23.421875 42.5 -24.992188 41.21875 -26.234375 C 39.9375 -27.484375 38.363281 -28.507812 36.5 -29.3125 C 34.632812 -30.113281 31.984375 -31.03125 28.546875 -32.0625 C 23.566406 -33.59375 19.503906 -35.125 16.359375 -36.65625 C 13.210938 -38.195312 10.503906 -40.46875 8.234375 -43.46875 C 5.960938 -46.46875 4.828125 -50.382812 4.828125 -55.21875 C 4.828125 -62.394531 7.425781 -68.015625 12.625 -72.078125 C 17.820312 -76.140625 24.59375 -78.171875 32.9375 -78.171875 C 41.425781 -78.171875 48.269531 -76.140625 53.46875 -72.078125 C 58.664062 -68.015625 61.445312 -62.359375 61.8125 -55.109375 L 41.5 -55.109375 C 41.351562 -57.597656 40.4375 -59.554688 38.75 -60.984375 C 37.070312 -62.410156 34.914062 -63.125 32.28125 -63.125 C 30.007812 -63.125 28.175781 -62.519531 26.78125 -61.3125 C 25.394531 -60.101562 24.703125 -58.363281 24.703125 -56.09375 C 24.703125 -53.601562 25.875 -51.660156 28.21875 -50.265625 C 30.5625 -48.878906 34.21875 -47.382812 39.1875 -45.78125 C 44.164062 -44.09375 48.207031 -42.476562 51.3125 -40.9375 C 54.425781 -39.40625 57.117188 -37.175781 59.390625 -34.25 C 61.660156 -31.320312 62.796875 -27.550781 62.796875 -22.9375 C 62.796875 -18.550781 61.675781 -14.5625 59.4375 -10.96875 C 57.207031 -7.382812 53.96875 -4.53125 49.71875 -2.40625 C 45.476562 -0.289062 40.46875 0.765625 34.6875 0.765625 Z M 34.6875 0.765625 "/></g></g></g></svg>